# Blender v2.78 (sub 0) OBJ File: 'Tree.blend'
# www.blender.org
mtllib Tree.mtl
o Tree_Circle.029
v 0.000000 0.000000 -1.000000
v -0.866025 0.000000 -0.500000
v -0.866025 0.000000 0.500000
v 0.000000 0.000000 1.000000
v 0.866025 0.000000 0.500000
v 0.866025 0.000000 -0.500000
v 0.000000 1.500000 -1.000000
v -0.866025 1.500000 -0.500000
v -0.866025 1.500000 0.500000
v 0.000000 1.500000 1.000000
v 0.866025 1.500000 0.500000
v 0.866025 1.500000 -0.500000
v -0.000000 1.346517 -3.479291
v -3.013154 1.346517 -1.739645
v -3.013154 1.346517 1.739645
v 0.000000 1.346517 3.479291
v 3.013154 1.346517 1.739645
v 3.013154 1.346517 -1.739645
v 0.000000 3.500000 -1.302336
v -1.127856 3.500000 -0.651168
v -1.127856 3.500000 0.651168
v 0.000000 3.500000 1.302336
v 1.127856 3.500000 0.651168
v 1.127856 3.500000 -0.651168
v 0.000000 2.900519 -2.890374
v -2.503138 2.900519 -1.445187
v -2.503138 2.900519 1.445187
v 0.000000 2.900519 2.890374
v 2.503138 2.900519 1.445187
v 2.503138 2.900519 -1.445187
v 0.000000 5.863784 -0.838448
v -0.726117 5.863784 -0.419224
v -0.726117 5.863784 0.419224
v 0.000000 5.863784 0.838448
v 0.726117 5.863784 0.419224
v 0.726117 5.863784 -0.419224
v -0.000000 5.014884 -2.154862
v -1.866166 5.014884 -1.077431
v -1.866166 5.014884 1.077431
v 0.000000 5.014884 2.154862
v 1.866166 5.014884 1.077431
v 1.866166 5.014884 -1.077431
v -0.000000 7.830134 0.000000
v 0.933083 6.422509 0.538715
vn 0.8660 0.0000 0.5000
vn 0.8660 0.0000 -0.5000
vn -0.8660 0.0000 0.5000
vn 0.0000 0.0000 1.0000
vn 0.0000 0.0000 -1.0000
vn -0.8660 0.0000 -0.5000
vn 0.6090 0.7109 0.3516
vn 0.6090 0.7109 -0.3516
vn -0.6090 0.7109 0.3516
vn 0.0000 0.7109 0.7032
vn 0.0000 0.7109 -0.7032
vn -0.6090 0.7109 -0.3516
vn 0.7120 0.5693 0.4111
vn 0.7120 0.5693 -0.4111
vn -0.7120 0.5693 0.4111
vn 0.0000 0.5693 0.8221
vn 0.0000 0.5693 -0.8221
vn -0.7120 0.5693 -0.4111
vn 0.6877 0.6078 0.3970
vn 0.6877 0.6078 -0.3970
vn 0.0000 1.0000 0.0000
vn -0.6877 0.6078 0.3970
vn 0.0000 0.6078 0.7941
vn 0.0000 0.6078 -0.7941
vn -0.6877 0.6078 -0.3970
usemtl None
s 1
f 5//1 6//2 12//2 11//1
f 3//3 4//4 10//4 9//3
f 1//5 2//6 8//6 7//5
f 6//2 1//5 7//5 12//2
f 4//4 5//1 11//1 10//4
f 2//6 3//3 9//3 8//6
f 17//7 18//8 24//8 23//7
f 15//9 16//10 22//10 21//9
f 13//11 14//12 20//12 19//11
f 18//8 13//11 19//11 24//8
f 16//10 17//7 23//7 22//10
f 14//12 15//9 21//9 20//12
f 29//13 30//14 36//14 35//13
f 27//15 28//16 34//16 33//15
f 25//17 26//18 32//18 31//17
f 30//14 25//17 31//17 36//14
f 28//16 29//13 35//13 34//16
f 26//18 27//15 33//15 32//18
f 41//19 42//20 43//21 44//19
f 39//22 40//23 43//21
f 37//24 38//25 43//21
f 42//20 37//24 43//21
f 40//23 41//19 44//19 43//21
f 38//25 39//22 43//21
