# Blender v2.78 (sub 0) OBJ File: 'VulcanoDungeon_trash.blend'
# www.blender.org
mtllib 5BarFence.mtl
o 5BarFence_Circle.006
v 9.600382 -0.276669 0.652119
v 9.600382 -0.276669 -0.652113
v 8.678150 0.276669 -0.652113
v 8.678150 0.276669 0.652119
v -5.022436 0.276669 -0.652113
v -5.022436 0.276669 0.652119
v -5.944667 -0.276670 0.652119
v -5.944667 -0.276670 -0.652113
v 9.600382 6.036036 0.652119
v 9.600382 6.036036 -0.652113
v 8.678150 5.482697 -0.652113
v 8.678150 5.482697 0.652119
v -5.022436 5.482696 -0.652113
v -5.022436 5.482696 0.652119
v -5.944667 6.036033 0.652119
v -5.944667 6.036033 -0.652113
v 6.702126 -0.391269 0.652119
v 6.702126 -0.391269 -0.652113
v 6.702126 0.391269 -0.652113
v 6.702126 0.391269 0.652119
v 7.920696 -0.391269 0.652119
v 7.920696 -0.391269 -0.652113
v 7.920696 0.391269 -0.652113
v 7.920696 0.391269 0.652119
v -4.264984 0.391269 -0.652113
v -4.264984 0.391269 0.652119
v -4.264983 -0.391270 0.652119
v -4.264983 -0.391270 -0.652113
v -3.046417 0.391269 -0.652113
v -3.046417 0.391269 0.652119
v -3.046416 -0.391270 0.652119
v -3.046416 -0.391270 -0.652113
v -0.609281 -0.391269 -0.652113
v -0.609281 -0.391269 0.652119
v -0.609281 0.391269 0.652119
v -0.609281 0.391269 -0.652113
v 0.609286 -0.391269 -0.652113
v 0.609286 -0.391269 0.652119
v 0.609286 0.391269 0.652119
v 0.609286 0.391269 -0.652113
v 3.046421 -0.391269 -0.652113
v 3.046421 -0.391269 0.652119
v 3.046421 0.391269 0.652119
v 3.046421 0.391269 -0.652113
v 4.264989 -0.391269 -0.652113
v 4.264989 -0.391269 0.652119
v 4.264989 0.391269 0.652119
v 4.264989 0.391269 -0.652113
v 6.702126 6.150636 0.652119
v 6.702126 6.150636 -0.652113
v 6.702126 5.368097 -0.652113
v 6.702126 5.368097 0.652119
v 7.920696 6.150636 0.652119
v 7.920696 6.150636 -0.652113
v 7.920696 5.368097 -0.652113
v 7.920696 5.368097 0.652119
v -4.264983 5.368095 -0.652113
v -4.264983 5.368095 0.652119
v -4.264984 6.150634 0.652119
v -4.264984 6.150634 -0.652113
v -3.046416 5.368096 -0.652113
v -3.046416 5.368096 0.652119
v -3.046417 6.150635 0.652119
v -3.046417 6.150635 -0.652113
v -0.609281 5.368097 0.652119
v -0.609281 5.368097 -0.652113
v -0.609281 6.150636 -0.652113
v -0.609281 6.150636 0.652119
v 0.609286 5.368097 0.652119
v 0.609286 5.368097 -0.652113
v 0.609286 6.150636 -0.652113
v 0.609286 6.150636 0.652119
v 3.046421 5.368097 0.652119
v 3.046421 5.368097 -0.652113
v 3.046421 6.150636 -0.652113
v 3.046421 6.150636 0.652119
v 4.264989 5.368097 0.652119
v 4.264989 5.368097 -0.652113
v 4.264989 6.150636 -0.652113
v 4.264989 6.150636 0.652119
v 4.831440 0.719921 0.652119
v 6.135672 0.719921 0.652119
v 6.135672 0.719921 -0.652113
v 4.831440 0.719921 -0.652113
v 4.831440 1.439842 0.652119
v 6.135672 1.439842 0.652119
v 6.135672 1.439842 -0.652113
v 4.831440 1.439842 -0.652113
v 4.831440 2.159762 0.652119
v 6.135672 2.159762 0.652119
v 6.135672 2.159762 -0.652113
v 4.831440 2.159762 -0.652113
v 4.831440 2.879683 0.652119
v 6.135672 2.879683 0.652119
v 6.135672 2.879683 -0.652113
v 4.831440 2.879683 -0.652113
v 4.831440 3.599604 0.652119
v 6.135672 3.599604 0.652119
v 6.135672 3.599604 -0.652113
v 4.831440 3.599604 -0.652113
v 4.831440 4.319525 0.652119
v 6.135672 4.319525 0.652119
v 6.135672 4.319525 -0.652113
v 4.831440 4.319525 -0.652113
v 4.831440 5.039445 0.652119
v 6.135672 5.039445 0.652119
v 6.135672 5.039445 -0.652113
v 4.831440 5.039445 -0.652113
v 1.175738 5.039445 0.652119
v 2.479970 5.039445 0.652119
v 2.479970 5.039445 -0.652113
v 1.175738 5.039445 -0.652113
v 1.175738 4.319525 0.652119
v 2.479970 4.319525 0.652119
v 2.479970 4.319525 -0.652113
v 1.175738 4.319525 -0.652113
v 1.175738 3.599604 0.652119
v 2.479970 3.599604 0.652119
v 2.479970 3.599604 -0.652113
v 1.175738 3.599604 -0.652113
v 1.175738 2.879683 0.652119
v 2.479970 2.879683 0.652119
v 2.479970 2.879683 -0.652113
v 1.175738 2.879683 -0.652113
v 1.175738 2.159762 0.652119
v 2.479970 2.159762 0.652119
v 2.479970 2.159762 -0.652113
v 1.175738 2.159762 -0.652113
v 1.175738 1.439842 0.652119
v 2.479970 1.439842 0.652119
v 2.479970 1.439842 -0.652113
v 1.175738 1.439842 -0.652113
v 1.175738 0.719921 0.652119
v 2.479970 0.719921 0.652119
v 2.479970 0.719921 -0.652113
v 1.175738 0.719921 -0.652113
v -2.479964 0.719921 0.652119
v -1.175733 0.719921 0.652119
v -1.175733 0.719921 -0.652113
v -2.479964 0.719921 -0.652113
v -2.479964 1.439842 0.652119
v -1.175733 1.439842 0.652119
v -1.175733 1.439842 -0.652113
v -2.479964 1.439842 -0.652113
v -2.479964 2.159762 0.652119
v -1.175733 2.159762 0.652119
v -1.175733 2.159762 -0.652113
v -2.479964 2.159762 -0.652113
v -2.479964 2.879683 0.652119
v -1.175733 2.879683 0.652119
v -1.175733 2.879683 -0.652113
v -2.479964 2.879683 -0.652113
v -2.479964 3.599604 0.652119
v -1.175733 3.599604 0.652119
v -1.175733 3.599604 -0.652113
v -2.479964 3.599604 -0.652113
v -2.479964 4.319525 0.652119
v -1.175733 4.319525 0.652119
v -1.175733 4.319525 -0.652113
v -2.479964 4.319525 -0.652113
v -2.479964 5.039445 0.652119
v -1.175733 5.039445 0.652119
v -1.175733 5.039445 -0.652113
v -2.479964 5.039445 -0.652113
v -4.831436 5.039444 -0.652113
v -4.831436 5.039444 0.652119
v -6.135667 5.039444 0.652119
v -6.135667 5.039444 -0.652113
v -4.831436 4.319523 -0.652113
v -4.831436 4.319523 0.652119
v -6.135667 4.319523 0.652119
v -6.135667 4.319523 -0.652113
v -4.831436 3.599602 -0.652113
v -4.831436 3.599602 0.652119
v -6.135667 3.599602 0.652119
v -6.135667 3.599602 -0.652113
v -4.831436 2.879682 -0.652113
v -4.831436 2.879682 0.652119
v -6.135667 2.879682 0.652119
v -6.135667 2.879682 -0.652113
v -4.831436 2.159761 -0.652113
v -4.831436 2.159761 0.652119
v -6.135667 2.159761 0.652119
v -6.135667 2.159761 -0.652113
v -4.831436 1.439840 -0.652113
v -4.831436 1.439840 0.652119
v -6.135667 1.439840 0.652119
v -6.135667 1.439840 -0.652113
v -4.831436 0.719920 -0.652113
v -4.831436 0.719920 0.652119
v -6.135667 0.719920 0.652119
v -6.135667 0.719920 -0.652113
v 9.791382 0.719921 0.652119
v 9.791382 0.719921 -0.652113
v 8.487150 0.719921 -0.652113
v 8.487150 0.719921 0.652119
v 9.791382 1.439842 0.652119
v 9.791382 1.439842 -0.652113
v 8.487150 1.439842 -0.652113
v 8.487150 1.439842 0.652119
v 9.791382 2.159762 0.652119
v 9.791382 2.159762 -0.652113
v 8.487150 2.159762 -0.652113
v 8.487150 2.159762 0.652119
v 9.791382 2.879683 0.652119
v 9.791382 2.879683 -0.652113
v 8.487150 2.879683 -0.652113
v 8.487150 2.879683 0.652119
v 9.791382 3.599604 0.652119
v 9.791382 3.599604 -0.652113
v 8.487150 3.599604 -0.652113
v 8.487150 3.599604 0.652119
v 9.791382 4.319525 0.652119
v 9.791382 4.319525 -0.652113
v 8.487150 4.319525 -0.652113
v 8.487150 4.319525 0.652119
v 9.791382 5.039445 0.652119
v 9.791382 5.039445 -0.652113
v 8.487150 5.039445 -0.652113
v 8.487150 5.039445 0.652119
vn 1.0000 0.0000 0.0000
vn 0.0000 0.0000 1.0000
vn -1.0000 0.0000 0.0000
vn 0.0000 0.0000 -1.0000
vn 0.0000 1.0000 0.0000
vn 0.0000 -1.0000 0.0000
vn -0.0681 0.9977 0.0000
vn -0.1496 -0.9887 0.0000
vn 0.1496 -0.9887 0.0000
vn 0.0681 0.9977 0.0000
vn -0.0681 -0.9977 0.0000
vn -0.1496 0.9887 0.0000
vn 0.1496 0.9887 0.0000
vn 0.0681 -0.9977 0.0000
vn 0.5018 -0.8650 0.0000
vn 0.5018 0.8650 0.0000
vn -0.5018 0.8650 0.0000
vn -0.5018 -0.8650 0.0000
vn 0.9184 0.3957 0.0000
vn -0.9821 0.1882 0.0000
vn 0.9184 -0.3957 0.0000
vn -0.9821 -0.1882 0.0000
vn 0.9821 -0.1882 0.0000
vn -0.9184 -0.3957 0.0000
vn 0.9821 0.1882 0.0000
vn -0.9184 0.3957 0.0000
usemtl Material.002
s off
f 114//1 118//1 119//1 115//1
f 113//2 117//2 118//2 114//2
f 112//3 116//3 113//3 109//3
f 111//4 115//4 116//4 112//4
f 110//1 114//1 115//1 111//1
f 109//2 113//2 114//2 110//2
f 108//3 104//3 101//3 105//3
f 107//4 103//4 104//4 108//4
f 106//1 102//1 103//1 107//1
f 105//2 101//2 102//2 106//2
f 104//3 100//3 97//3 101//3
f 103//4 99//4 100//4 104//4
f 102//1 98//1 99//1 103//1
f 101//2 97//2 98//2 102//2
f 100//3 96//3 93//3 97//3
f 99//4 95//4 96//4 100//4
f 98//1 94//1 95//1 99//1
f 97//2 93//2 94//2 98//2
f 96//3 92//3 89//3 93//3
f 95//4 91//4 92//4 96//4
f 94//1 90//1 91//1 95//1
f 93//2 89//2 90//2 94//2
f 92//3 88//3 85//3 89//3
f 91//4 87//4 88//4 92//4
f 90//1 86//1 87//1 91//1
f 89//2 85//2 86//2 90//2
f 88//3 84//3 81//3 85//3
f 87//4 83//4 84//4 88//4
f 86//1 82//1 83//1 87//1
f 85//2 81//2 82//2 86//2
f 80//2 76//2 73//2 77//2
f 79//5 75//5 76//5 80//5
f 78//4 74//4 75//4 79//4
f 77//6 73//6 74//6 78//6
f 72//2 68//2 65//2 69//2
f 71//5 67//5 68//5 72//5
f 70//4 66//4 67//4 71//4
f 69//6 65//6 66//6 70//6
f 60//4 64//4 61//4 57//4
f 59//5 63//5 64//5 60//5
f 161//2 162//2 65//2
f 58//2 62//2 63//2 59//2
f 57//6 61//6 62//6 58//6
f 16//4 60//4 57//4 13//4
f 15//7 59//7 60//7 16//7
f 14//2 58//2 59//2 15//2
f 13//8 57//8 58//8 14//8
f 56//2 12//2 9//2 53//2
f 55//9 11//9 12//9 56//9
f 54//4 10//4 11//4 55//4
f 53//10 9//10 10//10 54//10
f 52//2 56//2 53//2 49//2
f 51//6 55//6 56//6 52//6
f 50//4 54//4 55//4 51//4
f 49//5 53//5 54//5 50//5
f 44//4 48//4 45//4 41//4
f 43//5 47//5 48//5 44//5
f 42//2 46//2 47//2 43//2
f 41//6 45//6 46//6 42//6
f 36//4 40//4 37//4 33//4
f 35//5 39//5 40//5 36//5
f 161//2 63//2 62//2
f 34//2 38//2 39//2 35//2
f 33//6 37//6 38//6 34//6
f 32//4 28//4 25//4 29//4
f 31//6 27//6 28//6 32//6
f 30//2 26//2 27//2 31//2
f 29//5 25//5 26//5 30//5
f 28//4 8//4 5//4 25//4
f 27//11 7//11 8//11 28//11
f 26//2 6//2 7//2 27//2
f 109//2 72//2 69//2
f 25//12 5//12 6//12 26//12
f 4//2 24//2 21//2 1//2
f 109//2 110//2 73//2
f 3//13 23//13 24//13 4//13
f 2//4 22//4 23//4 3//4
f 19//4 18//4 45//4 48//4
f 18//6 17//6 46//6 45//6
f 51//4 78//4 79//4 50//4
f 161//2 65//2 68//2 63//2
f 105//2 80//2 77//2
f 1//14 21//14 22//14 2//14
f 24//2 20//2 17//2 21//2
f 105//2 106//2 52//2
f 109//2 73//2 76//2 72//2
f 105//2 52//2 49//2 80//2
f 23//5 19//5 20//5 24//5
f 22//4 18//4 19//4 23//4
f 21//6 17//6 18//6 22//6
f 80//5 49//5 50//5 79//5
f 63//5 68//5 67//5 64//5
f 44//4 41//4 37//4 40//4
f 74//4 70//4 71//4 75//4
f 30//2 31//2 34//2 35//2
f 41//6 42//6 38//6 37//6
f 72//5 76//5 75//5 71//5
f 66//4 61//4 64//4 67//4
f 34//6 31//6 32//6 33//6
f 46//2 17//2 20//2 82//2
f 33//4 32//4 29//4 140//4
f 38//2 42//2 43//2 134//2
f 33//4 140//4 139//4 36//4
f 38//2 134//2 133//2 39//2
f 46//2 82//2 81//2 47//2
f 52//15 106//15 107//15 51//15
f 82//16 20//16 19//16 83//16
f 29//17 30//17 137//17 140//17
f 65//15 162//15 163//15 66//15
f 112//18 109//18 69//18 70//18
f 73//15 110//15 111//15 74//15
f 134//16 43//16 44//16 135//16
f 138//16 35//16 36//16 139//16
f 40//17 39//17 133//17 136//17
f 108//18 105//18 77//18 78//18
f 48//17 47//17 81//17 84//17
f 164//18 161//18 62//18 61//18
f 51//4 107//4 108//4 78//4
f 74//4 111//4 112//4 70//4
f 30//2 35//2 138//2 137//2
f 19//4 48//4 84//4 83//4
f 44//4 40//4 136//4 135//4
f 66//4 163//4 164//4 61//4
f 115//4 119//4 120//4 116//4
f 116//3 120//3 117//3 113//3
f 117//2 121//2 122//2 118//2
f 118//1 122//1 123//1 119//1
f 119//4 123//4 124//4 120//4
f 120//3 124//3 121//3 117//3
f 121//2 125//2 126//2 122//2
f 122//1 126//1 127//1 123//1
f 123//4 127//4 128//4 124//4
f 124//3 128//3 125//3 121//3
f 125//2 129//2 130//2 126//2
f 126//1 130//1 131//1 127//1
f 127//4 131//4 132//4 128//4
f 128//3 132//3 129//3 125//3
f 129//2 133//2 134//2 130//2
f 130//1 134//1 135//1 131//1
f 131//4 135//4 136//4 132//4
f 132//3 136//3 133//3 129//3
f 141//2 137//2 138//2 142//2
f 142//1 138//1 139//1 143//1
f 143//4 139//4 140//4 144//4
f 144//3 140//3 137//3 141//3
f 145//2 141//2 142//2 146//2
f 146//1 142//1 143//1 147//1
f 147//4 143//4 144//4 148//4
f 148//3 144//3 141//3 145//3
f 149//2 145//2 146//2 150//2
f 150//1 146//1 147//1 151//1
f 151//4 147//4 148//4 152//4
f 152//3 148//3 145//3 149//3
f 153//2 149//2 150//2 154//2
f 154//1 150//1 151//1 155//1
f 155//4 151//4 152//4 156//4
f 156//3 152//3 149//3 153//3
f 157//2 153//2 154//2 158//2
f 158//1 154//1 155//1 159//1
f 159//4 155//4 156//4 160//4
f 160//3 156//3 153//3 157//3
f 161//2 157//2 158//2 162//2
f 162//1 158//1 159//1 163//1
f 163//4 159//4 160//4 164//4
f 164//3 160//3 157//3 161//3
f 165//19 13//19 14//19 166//19
f 166//2 14//2 15//2 167//2
f 167//20 15//20 16//20 168//20
f 168//4 16//4 13//4 165//4
f 169//1 165//1 166//1 170//1
f 170//2 166//2 167//2 171//2
f 171//3 167//3 168//3 172//3
f 172//4 168//4 165//4 169//4
f 173//1 169//1 170//1 174//1
f 174//2 170//2 171//2 175//2
f 175//3 171//3 172//3 176//3
f 176//4 172//4 169//4 173//4
f 177//1 173//1 174//1 178//1
f 178//2 174//2 175//2 179//2
f 179//3 175//3 176//3 180//3
f 180//4 176//4 173//4 177//4
f 181//1 177//1 178//1 182//1
f 182//2 178//2 179//2 183//2
f 183//3 179//3 180//3 184//3
f 184//4 180//4 177//4 181//4
f 185//1 181//1 182//1 186//1
f 186//2 182//2 183//2 187//2
f 187//3 183//3 184//3 188//3
f 188//4 184//4 181//4 185//4
f 189//1 185//1 186//1 190//1
f 190//2 186//2 187//2 191//2
f 191//3 187//3 188//3 192//3
f 192//4 188//4 185//4 189//4
f 5//21 189//21 190//21 6//21
f 6//2 190//2 191//2 7//2
f 7//22 191//22 192//22 8//22
f 8//4 192//4 189//4 5//4
f 193//23 1//23 2//23 194//23
f 194//4 2//4 3//4 195//4
f 195//24 3//24 4//24 196//24
f 196//2 4//2 1//2 193//2
f 197//1 193//1 194//1 198//1
f 198//4 194//4 195//4 199//4
f 199//3 195//3 196//3 200//3
f 200//2 196//2 193//2 197//2
f 201//1 197//1 198//1 202//1
f 202//4 198//4 199//4 203//4
f 203//3 199//3 200//3 204//3
f 204//2 200//2 197//2 201//2
f 205//1 201//1 202//1 206//1
f 206//4 202//4 203//4 207//4
f 207//3 203//3 204//3 208//3
f 208//2 204//2 201//2 205//2
f 209//1 205//1 206//1 210//1
f 210//4 206//4 207//4 211//4
f 211//3 207//3 208//3 212//3
f 212//2 208//2 205//2 209//2
f 213//1 209//1 210//1 214//1
f 214//4 210//4 211//4 215//4
f 215//3 211//3 212//3 216//3
f 216//2 212//2 209//2 213//2
f 217//1 213//1 214//1 218//1
f 218//4 214//4 215//4 219//4
f 219//3 215//3 216//3 220//3
f 220//2 216//2 213//2 217//2
f 9//25 217//25 218//25 10//25
f 10//4 218//4 219//4 11//4
f 11//26 219//26 220//26 12//26
f 12//2 220//2 217//2 9//2
