# Blender v2.78 (sub 0) OBJ File: 'VulcanoDungeon_trash.blend'
# www.blender.org
mtllib BlockFence.mtl
o Circle.008_Circle.006
v 8.678367 0.276669 0.652119
v 8.678367 0.276669 -0.652113
v 9.600598 -0.276669 -0.652113
v 9.600598 -0.276669 0.652119
v 8.678367 5.482697 0.652119
v 8.678367 5.482697 -0.652113
v 9.600598 6.036036 -0.652113
v 9.600598 6.036036 0.652119
v -9.600587 6.036034 0.652119
v -8.678355 5.482695 0.652119
v -8.678355 5.482695 -0.652113
v -9.600587 6.036034 -0.652113
v -9.600587 -0.276671 -0.652113
v -9.600587 -0.276671 0.652119
v -8.678355 0.276668 0.652119
v -8.678355 0.276668 -0.652113
v 6.702284 0.391269 0.652119
v 6.702284 0.391269 -0.652113
v 6.702284 -0.391269 -0.652113
v 6.702284 -0.391269 0.652119
v 7.920884 0.391269 0.652119
v 7.920884 0.391269 -0.652113
v 7.920884 -0.391269 -0.652113
v 7.920884 -0.391269 0.652119
v -7.920874 -0.391271 -0.652113
v -7.920874 -0.391271 0.652119
v -7.920874 0.391268 0.652119
v -7.920874 0.391268 -0.652113
v -6.702278 -0.391271 -0.652113
v -6.702278 -0.391271 0.652119
v -6.702278 0.391268 0.652119
v -6.702278 0.391268 -0.652113
v -4.265084 -0.391270 0.652119
v -4.265084 -0.391270 -0.652113
v -4.265085 0.391269 -0.652113
v -4.265085 0.391269 0.652119
v -3.046488 -0.391270 0.652119
v -3.046488 -0.391270 -0.652113
v -3.046489 0.391269 -0.652113
v -3.046489 0.391269 0.652119
v -0.609296 -0.391269 -0.652113
v -0.609296 -0.391269 0.652119
v -0.609296 0.391269 0.652119
v -0.609296 0.391269 -0.652113
v 0.609301 -0.391269 -0.652113
v 0.609301 -0.391269 0.652119
v 0.609301 0.391269 0.652119
v 0.609301 0.391269 -0.652113
v 3.046494 -0.391269 0.652119
v 3.046494 -0.391269 -0.652113
v 3.046494 0.391269 -0.652113
v 3.046494 0.391269 0.652119
v 4.265090 -0.391269 0.652119
v 4.265090 -0.391269 -0.652113
v 4.265090 0.391269 -0.652113
v 4.265090 0.391269 0.652119
v 6.702284 5.368097 0.652119
v 6.702284 5.368097 -0.652113
v 6.702284 6.150636 -0.652113
v 6.702284 6.150636 0.652119
v 7.920884 5.368097 0.652119
v 7.920884 5.368097 -0.652113
v 7.920884 6.150636 -0.652113
v 7.920884 6.150636 0.652119
v -7.920874 6.150634 0.652119
v -7.920874 5.368095 0.652119
v -7.920874 5.368095 -0.652113
v -7.920874 6.150634 -0.652113
v -6.702278 6.150634 0.652119
v -6.702278 5.368095 0.652119
v -6.702278 5.368095 -0.652113
v -6.702278 6.150634 -0.652113
v -4.265084 5.368095 -0.652113
v -4.265084 5.368095 0.652119
v -4.265085 6.150634 0.652119
v -4.265085 6.150634 -0.652113
v -3.046488 5.368096 -0.652113
v -3.046488 5.368096 0.652119
v -3.046489 6.150635 0.652119
v -3.046489 6.150635 -0.652113
v -0.609296 5.368097 0.652119
v -0.609296 5.368097 -0.652113
v -0.609296 6.150636 -0.652113
v -0.609296 6.150636 0.652119
v 0.609301 5.368097 0.652119
v 0.609301 5.368097 -0.652113
v 0.609301 6.150636 -0.652113
v 0.609301 6.150636 0.652119
v 3.046494 5.368097 -0.652113
v 3.046494 5.368097 0.652119
v 3.046494 6.150636 0.652119
v 3.046494 6.150636 -0.652113
v 4.265090 5.368097 -0.652113
v 4.265090 5.368097 0.652119
v 4.265090 6.150636 0.652119
v 4.265090 6.150636 -0.652113
v 4.831570 0.719921 0.652119
v 6.135801 0.719921 0.652119
v 6.135801 0.719921 -0.652113
v 4.831570 0.719921 -0.652113
v 4.831570 1.439842 0.652119
v 6.135801 1.439842 0.652119
v 6.135801 1.439842 -0.652113
v 4.831570 1.439842 -0.652113
v 4.831570 2.159762 0.652119
v 6.135801 2.159762 0.652119
v 6.135801 2.159762 -0.652113
v 4.831570 2.159762 -0.652113
v 4.831570 2.879683 0.652119
v 6.135801 2.879683 0.652119
v 6.135801 2.879683 -0.652113
v 4.831570 2.879683 -0.652113
v 4.831570 3.599604 0.652119
v 6.135801 3.599604 0.652119
v 6.135801 3.599604 -0.652113
v 4.831570 3.599604 -0.652113
v 4.831570 4.319525 0.652119
v 6.135801 4.319525 0.652119
v 6.135801 4.319525 -0.652113
v 4.831570 4.319525 -0.652113
v 4.831570 5.039445 0.652119
v 6.135801 5.039445 0.652119
v 6.135801 5.039445 -0.652113
v 4.831570 5.039445 -0.652113
v 1.175782 5.039445 0.652119
v 2.480013 5.039445 0.652119
v 2.480013 5.039445 -0.652113
v 1.175782 5.039445 -0.652113
v 1.175782 4.319525 0.652119
v 2.480013 4.319525 0.652119
v 2.480013 4.319525 -0.652113
v 1.175782 4.319525 -0.652113
v 1.175782 3.599604 0.652119
v 2.480013 3.599604 0.652119
v 2.480013 3.599604 -0.652113
v 1.175782 3.599604 -0.652113
v 1.175782 2.879683 0.652119
v 2.480013 2.879683 0.652119
v 2.480013 2.879683 -0.652113
v 1.175782 2.879683 -0.652113
v 1.175782 2.159762 0.652119
v 2.480013 2.159762 0.652119
v 2.480013 2.159762 -0.652113
v 1.175782 2.159762 -0.652113
v 1.175782 1.439842 0.652119
v 2.480013 1.439842 0.652119
v 2.480013 1.439842 -0.652113
v 1.175782 1.439842 -0.652113
v 1.175782 0.719921 0.652119
v 2.480013 0.719921 0.652119
v 2.480013 0.719921 -0.652113
v 1.175782 0.719921 -0.652113
v -2.480008 0.719921 0.652119
v -1.175776 0.719921 0.652119
v -1.175776 0.719921 -0.652113
v -2.480008 0.719921 -0.652113
v -2.480008 1.439842 0.652119
v -1.175776 1.439842 0.652119
v -1.175776 1.439842 -0.652113
v -2.480008 1.439842 -0.652113
v -2.480008 2.159762 0.652119
v -1.175776 2.159762 0.652119
v -1.175776 2.159762 -0.652113
v -2.480008 2.159762 -0.652113
v -2.480008 2.879683 0.652119
v -1.175776 2.879683 0.652119
v -1.175776 2.879683 -0.652113
v -2.480008 2.879683 -0.652113
v -2.480008 3.599604 0.652119
v -1.175776 3.599604 0.652119
v -1.175776 3.599604 -0.652113
v -2.480008 3.599604 -0.652113
v -2.480008 4.319525 0.652119
v -1.175776 4.319525 0.652119
v -1.175776 4.319525 -0.652113
v -2.480008 4.319525 -0.652113
v -2.480008 5.039445 0.652119
v -1.175776 5.039445 0.652119
v -1.175776 5.039445 -0.652113
v -2.480008 5.039445 -0.652113
v -6.135797 5.039444 0.652119
v -4.831565 5.039444 0.652119
v -4.831565 5.039444 -0.652113
v -6.135797 5.039444 -0.652113
v -6.135797 4.319523 0.652119
v -4.831565 4.319523 0.652119
v -4.831565 4.319523 -0.652113
v -6.135797 4.319523 -0.652113
v -6.135798 3.599602 0.652119
v -4.831566 3.599602 0.652119
v -4.831566 3.599602 -0.652113
v -6.135798 3.599602 -0.652113
v -6.135797 2.879682 0.652119
v -4.831565 2.879682 0.652119
v -4.831565 2.879682 -0.652113
v -6.135797 2.879682 -0.652113
v -6.135798 2.159761 0.652119
v -4.831566 2.159761 0.652119
v -4.831566 2.159761 -0.652113
v -6.135798 2.159761 -0.652113
v -6.135797 1.439840 0.652119
v -4.831565 1.439841 0.652119
v -4.831565 1.439841 -0.652113
v -6.135797 1.439840 -0.652113
v -6.135797 0.719920 0.652119
v -4.831565 0.719920 0.652119
v -4.831565 0.719920 -0.652113
v -6.135797 0.719920 -0.652113
v 8.487367 0.719921 0.652119
v 8.487367 0.719921 -0.652113
v 9.791598 0.719921 -0.652113
v 9.791598 0.719921 0.652119
v 8.487367 1.439842 0.652119
v 8.487367 1.439842 -0.652113
v 9.791598 1.439842 -0.652113
v 9.791598 1.439842 0.652119
v 8.487367 2.159762 0.652119
v 8.487367 2.159762 -0.652113
v 9.791598 2.159762 -0.652113
v 9.791598 2.159762 0.652119
v 8.487367 2.879683 0.652119
v 8.487367 2.879683 -0.652113
v 9.791598 2.879683 -0.652113
v 9.791598 2.879683 0.652119
v 8.487367 3.599604 0.652119
v 8.487367 3.599604 -0.652113
v 9.791598 3.599604 -0.652113
v 9.791598 3.599604 0.652119
v 8.487367 4.319525 0.652119
v 8.487367 4.319525 -0.652113
v 9.791598 4.319525 -0.652113
v 9.791598 4.319525 0.652119
v 8.487367 5.039445 0.652119
v 8.487367 5.039445 -0.652113
v 9.791598 5.039445 -0.652113
v 9.791598 5.039445 0.652119
v -9.791587 5.039443 0.652119
v -8.487355 5.039443 0.652119
v -8.487355 5.039443 -0.652113
v -9.791587 5.039443 -0.652113
v -9.791587 4.319523 0.652119
v -8.487355 4.319523 0.652119
v -8.487355 4.319523 -0.652113
v -9.791587 4.319523 -0.652113
v -9.791587 3.599602 0.652119
v -8.487355 3.599602 0.652119
v -8.487355 3.599602 -0.652113
v -9.791587 3.599602 -0.652113
v -9.791587 2.879681 0.652119
v -8.487355 2.879681 0.652119
v -8.487355 2.879681 -0.652113
v -9.791587 2.879681 -0.652113
v -9.791587 2.159760 0.652119
v -8.487355 2.159760 0.652119
v -8.487355 2.159760 -0.652113
v -9.791587 2.159760 -0.652113
v -9.791587 1.439840 0.652119
v -8.487355 1.439840 0.652119
v -8.487355 1.439840 -0.652113
v -9.791587 1.439840 -0.652113
v -9.791587 0.719919 0.652119
v -8.487355 0.719919 0.652119
v -8.487355 0.719919 -0.652113
v -9.791587 0.719919 -0.652113
vn -1.0000 0.0000 0.0000
vn 0.0000 0.0000 -1.0000
vn 1.0000 0.0000 0.0000
vn 0.0000 0.0000 1.0000
vn 0.0000 1.0000 0.0000
vn 0.0000 -1.0000 0.0000
vn -0.0681 0.9977 0.0000
vn -0.1496 -0.9887 0.0000
vn 0.0681 0.9977 0.0000
vn 0.1496 -0.9887 0.0000
vn -0.1496 0.9887 0.0000
vn -0.0681 -0.9977 0.0000
vn 0.0681 -0.9977 0.0000
vn 0.1496 0.9887 0.0000
vn 0.5018 -0.8650 0.0000
vn 0.5018 0.8650 0.0000
vn -0.5018 0.8650 0.0000
vn -0.5018 -0.8650 0.0000
vn -0.9184 -0.3957 0.0000
vn 0.9821 -0.1882 0.0000
vn -0.9184 0.3957 0.0000
vn 0.9821 0.1882 0.0000
vn 0.9184 0.3957 0.0000
vn -0.9821 0.1882 0.0000
vn -0.7007 -0.1343 0.7007
vn 0.8274 -0.3566 0.4338
vn 0.6764 -0.2915 -0.6764
vn -0.7765 -0.1488 -0.6122
usemtl Material.002
s off
f 148//1 152//1 149//1 145//1
f 147//2 151//2 152//2 148//2
f 146//3 150//3 151//3 147//3
f 145//4 149//4 150//4 146//4
f 144//1 148//1 145//1 141//1
f 143//2 147//2 148//2 144//2
f 142//3 146//3 147//3 143//3
f 141//4 145//4 146//4 142//4
f 140//1 144//1 141//1 137//1
f 139//2 143//2 144//2 140//2
f 138//3 142//3 143//3 139//3
f 137//4 141//4 142//4 138//4
f 136//1 140//1 137//1 133//1
f 135//2 139//2 140//2 136//2
f 134//3 138//3 139//3 135//3
f 133//4 137//4 138//4 134//4
f 132//1 136//1 133//1 129//1
f 131//2 135//2 136//2 132//2
f 130//3 134//3 135//3 131//3
f 129//4 133//4 134//4 130//4
f 128//1 132//1 129//1 125//1
f 127//2 131//2 132//2 128//2
f 126//3 130//3 131//3 127//3
f 125//4 129//4 130//4 126//4
f 124//1 120//1 117//1 121//1
f 123//2 119//2 120//2 124//2
f 122//3 118//3 119//3 123//3
f 121//4 117//4 118//4 122//4
f 120//1 116//1 113//1 117//1
f 119//2 115//2 116//2 120//2
f 118//3 114//3 115//3 119//3
f 117//4 113//4 114//4 118//4
f 116//1 112//1 109//1 113//1
f 115//2 111//2 112//2 116//2
f 114//3 110//3 111//3 115//3
f 113//4 109//4 110//4 114//4
f 112//1 108//1 105//1 109//1
f 111//2 107//2 108//2 112//2
f 110//3 106//3 107//3 111//3
f 109//4 105//4 106//4 110//4
f 108//1 104//1 101//1 105//1
f 107//2 103//2 104//2 108//2
f 106//3 102//3 103//3 107//3
f 105//4 101//4 102//4 106//4
f 104//1 100//1 97//1 101//1
f 103//2 99//2 100//2 104//2
f 102//3 98//3 99//3 103//3
f 101//4 97//4 98//4 102//4
f 92//2 96//2 93//2 89//2
f 91//5 95//5 96//5 92//5
f 181//4 182//4 74//4
f 90//4 94//4 95//4 91//4
f 89//6 93//6 94//6 90//6
f 181//4 69//4 70//4
f 88//4 84//4 81//4 85//4
f 87//5 83//5 84//5 88//5
f 86//2 82//2 83//2 87//2
f 85//6 81//6 82//6 86//6
f 76//2 80//2 77//2 73//2
f 75//5 79//5 80//5 76//5
f 74//4 78//4 79//4 75//4
f 73//6 77//6 78//6 74//6
f 72//5 68//5 65//5 69//5
f 71//2 67//2 68//2 72//2
f 70//6 66//6 67//6 71//6
f 69//4 65//4 66//4 70//4
f 68//7 12//7 9//7 65//7
f 67//2 11//2 12//2 68//2
f 66//8 10//8 11//8 67//8
f 65//4 9//4 10//4 66//4
f 8//4 64//4 61//4 5//4
f 7//9 63//9 64//9 8//9
f 6//2 62//2 63//2 7//2
f 5//10 61//10 62//10 6//10
f 64//4 60//4 57//4 61//4
f 177//4 178//4 81//4
f 63//5 59//5 60//5 64//5
f 62//2 58//2 59//2 63//2
f 61//6 57//6 58//6 62//6
f 56//4 52//4 49//4 53//4
f 55//5 51//5 52//5 56//5
f 54//2 50//2 51//2 55//2
f 53//6 49//6 50//6 54//6
f 125//4 88//4 85//4
f 44//2 48//2 45//2 41//2
f 43//5 47//5 48//5 44//5
f 42//4 46//4 47//4 43//4
f 177//4 79//4 78//4
f 41//6 45//6 46//6 42//6
f 40//4 36//4 33//4 37//4
f 125//4 126//4 90//4
f 39//5 35//5 36//5 40//5
f 38//2 34//2 35//2 39//2
f 37//6 33//6 34//6 38//6
f 28//2 32//2 29//2 25//2
f 27//5 31//5 32//5 28//5
f 26//4 30//4 31//4 27//4
f 25//6 29//6 30//6 26//6
f 16//2 28//2 25//2 13//2
f 15//11 27//11 28//11 16//11
f 14//4 26//4 27//4 15//4
f 13//12 25//12 26//12 14//12
f 24//4 4//4 1//4 21//4
f 18//2 19//2 54//2 55//2
f 23//13 3//13 4//13 24//13
f 22//2 2//2 3//2 23//2
f 21//14 1//14 2//14 22//14
f 20//4 24//4 21//4 17//4
f 19//6 23//6 24//6 20//6
f 19//6 20//6 53//6 54//6
f 177//4 81//4 84//4 79//4
f 125//4 90//4 91//4 88//4
f 181//4 74//4 75//4 69//4
f 121//4 95//4 94//4
f 18//2 22//2 23//2 19//2
f 17//5 21//5 22//5 18//5
f 121//4 122//4 57//4
f 121//4 57//4 60//4 95//4
f 95//5 60//5 59//5 96//5
f 58//2 93//2 96//2 59//2
f 33//6 30//6 29//6 34//6
f 79//5 84//5 83//5 80//5
f 31//4 30//4 33//4 36//4
f 73//2 71//2 72//2 76//2
f 82//2 77//2 80//2 83//2
f 40//4 37//4 42//4 43//4
f 89//2 86//2 87//2 92//2
f 42//6 37//6 38//6 41//6
f 88//5 91//5 92//5 87//5
f 50//6 49//6 46//6 45//6
f 69//5 75//5 76//5 72//5
f 51//2 50//2 45//2 48//2
f 53//4 20//4 17//4 98//4
f 34//2 29//2 32//2 208//2
f 41//2 38//2 39//2 156//2
f 46//4 49//4 52//4 150//4
f 41//2 156//2 155//2 44//2
f 46//4 150//4 149//4 47//4
f 53//4 98//4 97//4 56//4
f 34//2 208//2 207//2 35//2
f 57//15 122//15 123//15 58//15
f 98//16 17//16 18//16 99//16
f 74//15 182//15 183//15 73//15
f 81//15 178//15 179//15 82//15
f 39//17 40//17 153//17 156//17
f 32//17 31//17 205//17 208//17
f 128//18 125//18 85//18 86//18
f 90//15 126//15 127//15 89//15
f 48//17 47//17 149//17 152//17
f 154//16 43//16 44//16 155//16
f 150//16 52//16 51//16 151//16
f 184//18 181//18 70//18 71//18
f 124//18 121//18 94//18 93//18
f 55//17 56//17 97//17 100//17
f 206//16 36//16 35//16 207//16
f 180//18 177//18 78//18 77//18
f 58//2 123//2 124//2 93//2
f 89//2 127//2 128//2 86//2
f 18//2 55//2 100//2 99//2
f 40//4 43//4 154//4 153//4
f 73//2 183//2 184//2 71//2
f 51//2 48//2 152//2 151//2
f 82//2 179//2 180//2 77//2
f 31//4 36//4 206//4 205//4
f 157//4 153//4 154//4 158//4
f 158//3 154//3 155//3 159//3
f 159//2 155//2 156//2 160//2
f 160//1 156//1 153//1 157//1
f 161//4 157//4 158//4 162//4
f 162//3 158//3 159//3 163//3
f 163//2 159//2 160//2 164//2
f 164//1 160//1 157//1 161//1
f 165//4 161//4 162//4 166//4
f 166//3 162//3 163//3 167//3
f 167//2 163//2 164//2 168//2
f 168//1 164//1 161//1 165//1
f 169//4 165//4 166//4 170//4
f 170//3 166//3 167//3 171//3
f 171//2 167//2 168//2 172//2
f 172//1 168//1 165//1 169//1
f 173//4 169//4 170//4 174//4
f 174//3 170//3 171//3 175//3
f 175//2 171//2 172//2 176//2
f 176//1 172//1 169//1 173//1
f 177//4 173//4 174//4 178//4
f 178//3 174//3 175//3 179//3
f 179//2 175//2 176//2 180//2
f 180//1 176//1 173//1 177//1
f 181//4 185//4 186//4 182//4
f 182//3 186//3 187//3 183//3
f 183//2 187//2 188//2 184//2
f 184//1 188//1 185//1 181//1
f 185//4 189//4 190//4 186//4
f 186//3 190//3 191//3 187//3
f 187//2 191//2 192//2 188//2
f 188//1 192//1 189//1 185//1
f 189//4 193//4 194//4 190//4
f 190//3 194//3 195//3 191//3
f 191//2 195//2 196//2 192//2
f 192//1 196//1 193//1 189//1
f 193//4 197//4 198//4 194//4
f 194//3 198//3 199//3 195//3
f 195//2 199//2 200//2 196//2
f 196//1 200//1 197//1 193//1
f 197//4 201//4 202//4 198//4
f 198//3 202//3 203//3 199//3
f 199//2 203//2 204//2 200//2
f 200//1 204//1 201//1 197//1
f 201//4 205//4 206//4 202//4
f 202//3 206//3 207//3 203//3
f 203//2 207//2 208//2 204//2
f 204//1 208//1 205//1 201//1
f 1//19 209//19 210//19 2//19
f 2//2 210//2 211//2 3//2
f 3//20 211//20 212//20 4//20
f 4//4 212//4 209//4 1//4
f 209//1 213//1 214//1 210//1
f 210//2 214//2 215//2 211//2
f 211//3 215//3 216//3 212//3
f 212//4 216//4 213//4 209//4
f 213//1 217//1 218//1 214//1
f 214//2 218//2 219//2 215//2
f 215//3 219//3 220//3 216//3
f 216//4 220//4 217//4 213//4
f 217//1 221//1 222//1 218//1
f 218//2 222//2 223//2 219//2
f 219//3 223//3 224//3 220//3
f 220//4 224//4 221//4 217//4
f 221//1 225//1 226//1 222//1
f 222//2 226//2 227//2 223//2
f 223//3 227//3 228//3 224//3
f 224//4 228//4 225//4 221//4
f 225//1 229//1 230//1 226//1
f 226//2 230//2 231//2 227//2
f 227//3 231//3 232//3 228//3
f 228//4 232//4 229//4 225//4
f 229//1 233//1 234//1 230//1
f 230//2 234//2 235//2 231//2
f 231//3 235//3 236//3 232//3
f 232//4 236//4 233//4 229//4
f 233//21 5//21 6//21 234//21
f 234//2 6//2 7//2 235//2
f 235//22 7//22 8//22 236//22
f 236//4 8//4 5//4 233//4
f 9//4 237//4 238//4 10//4
f 10//23 238//23 239//23 11//23
f 11//2 239//2 240//2 12//2
f 12//24 240//24 237//24 9//24
f 237//4 241//4 242//4 238//4
f 238//3 242//3 243//3 239//3
f 239//2 243//2 244//2 240//2
f 240//1 244//1 241//1 237//1
f 241//4 245//4 246//4 242//4
f 242//3 246//3 247//3 243//3
f 243//2 247//2 248//2 244//2
f 244//1 248//1 245//1 241//1
f 245//4 249//4 250//4 246//4
f 246//3 250//3 251//3 247//3
f 247//2 251//2 252//2 248//2
f 248//1 252//1 249//1 245//1
f 249//4 253//4 254//4 250//4
f 250//3 254//3 255//3 251//3
f 251//2 255//2 256//2 252//2
f 252//1 256//1 253//1 249//1
f 253//4 257//4 258//4 254//4
f 254//3 258//3 259//3 255//3
f 255//2 259//2 260//2 256//2
f 256//1 260//1 257//1 253//1
f 257//4 261//4 262//4 258//4
f 258//3 262//3 263//3 259//3
f 259//2 263//2 264//2 260//2
f 260//1 264//1 261//1 257//1
f 261//25 13//25 14//25 262//25
f 262//26 14//26 15//26 263//26
f 263//27 15//27 16//27 264//27
f 264//28 16//28 13//28 261//28
